HIERARCHY
ROOT Hips
{
	OFFSET -3.958830 18.904000 13.208200
	CHANNELS 6 Xposition Yposition Zposition Zrotation Yrotation Xrotation 
	JOINT LHipJoint
	{
		OFFSET 0.000000 0.000000 0.000000
		CHANNELS 3 Zrotation Yrotation Xrotation
		JOINT LeftUpLeg
		{
			OFFSET 1.800000 -1.400000 0.085000
			CHANNELS 3 Zrotation Yrotation Xrotation
			JOINT LeftLeg
			{
				OFFSET 2.215000 -6.000000 0.000000
				CHANNELS 3 Zrotation Yrotation Xrotation
				JOINT LeftFoot
				{
					OFFSET 2.500000 -6.900000 0.000000
					CHANNELS 3 Zrotation Yrotation Xrotation
					JOINT LeftToeBase
					{
						OFFSET 0.200000 -0.500000 1.950000
						CHANNELS 3 Zrotation Yrotation Xrotation
						End Site
						{
							OFFSET 0.000000 0.000000 0.000000
						}
					}
				}
			}
		}
	}
	JOINT RHipJoint
	{
		OFFSET 0.000000 0.000000 0.000000
		CHANNELS 3 Zrotation Yrotation Xrotation
		JOINT RightUpLeg
		{
			OFFSET -1.800000 -1.400000 0.085000
			CHANNELS 3 Zrotation Yrotation Xrotation
			JOINT RightLeg
			{
				OFFSET -2.215000 -6.000000 0.000000
				CHANNELS 3 Zrotation Yrotation Xrotation
				JOINT RightFoot
				{
					OFFSET -2.500000 -6.900000 0.000000
					CHANNELS 3 Zrotation Yrotation Xrotation
					JOINT RightToeBase
					{
						OFFSET -0.200000 -0.500000 1.950000
						CHANNELS 3 Zrotation Yrotation Xrotation
						End Site
						{
							OFFSET 0.000000 0.000000 0.000000
						}
					}
				}
			}
		}
	}
	JOINT LowerBack
	{
		OFFSET 0.000000 0.000000 0.000000
		CHANNELS 3 Zrotation Yrotation Xrotation
		JOINT Spine
		{
			OFFSET -0.087000 1.940000 -0.288900
			CHANNELS 3 Zrotation Yrotation Xrotation
			JOINT Spine1
			{
				OFFSET 0.000000 1.950000 0.060000
				CHANNELS 3 Zrotation Yrotation Xrotation
				JOINT Neck
				{
					OFFSET 0.000000 0.000000 0.000000
					CHANNELS 3 Zrotation Yrotation Xrotation
					JOINT Neck1
					{
						OFFSET 0.000000 1.600000 0.340000
						CHANNELS 3 Zrotation Yrotation Xrotation
						JOINT Head
						{
							OFFSET 0.000000 1.667000 -0.240000
							CHANNELS 3 Zrotation Yrotation Xrotation
							End Site
							{
								OFFSET 0.000000 0.000000 0.000000
							}
						}
					}
				}
				JOINT LeftShoulder
				{
					OFFSET 0.000000 0.000000 0.000000
					CHANNELS 3 Zrotation Yrotation Xrotation
					JOINT LeftArm
					{
						OFFSET 2.700000 1.550000 -0.730000
						CHANNELS 3 Zrotation Yrotation Xrotation
						JOINT LeftForeArm
						{
							OFFSET 5.450000 0.000000 0.000000
							CHANNELS 3 Zrotation Yrotation Xrotation
							JOINT LeftHand
							{
								OFFSET 3.450000 0.000000 0.000000
								CHANNELS 3 Zrotation Yrotation Xrotation
								JOINT LeftHandIndex1
								{
									OFFSET 0.750000 0.000000 0.000000
									CHANNELS 3 Zrotation Yrotation Xrotation
									End Site
									{
										OFFSET 0.000000 0.000000 0.000000
									}
								}
							}
						}
					}
				}
				JOINT RightShoulder
				{
					OFFSET 0.000000 0.000000 0.000000
					CHANNELS 3 Zrotation Yrotation Xrotation
					JOINT RightArm
					{
						OFFSET -2.700000 1.550000 -0.730000
						CHANNELS 3 Zrotation Yrotation Xrotation
						JOINT RightForeArm
						{
							OFFSET -5.450000 0.000000 0.000000
							CHANNELS 3 Zrotation Yrotation Xrotation
							JOINT RightHand
							{
								OFFSET -3.450000 0.000000 0.000000
								CHANNELS 3 Zrotation Yrotation Xrotation
								JOINT RightHandIndex1
								{
									OFFSET -0.750000 0.000000 0.000000
									CHANNELS 3 Zrotation Yrotation Xrotation
									End Site
									{
										OFFSET 0.000000 0.000000 0.000000
									}
								}
							}
						}
					}
				}
			}
		}
	}
}
MOTION
Frames: 7
Frame Time: 0.016667
0.009530 17.027570 -5.009190 -2.321973 18.876307 -13.664745 -14.393885 12.119233 2.726317 3.854191 -0.079241 2.558323 -10.019588 7.011569 12.954783 0.754500 4.293610 3.157724 0.523730 0.425920 0.534730 18.969664 -12.707645 2.517811 -6.603697 -0.037436 -10.554952 8.248407 -10.377266 33.320044 -1.012790 -5.738614 2.184756 -0.148020 -0.301270 0.371230 -6.279078 3.285946 -7.573749 33.049173 -13.752648 24.979835 -32.864194 -2.742768 25.050097 9.552210 0.280922 -17.573008 -3.911373 -6.528630 45.776842 9.882580 -8.460300 -21.810000 -9.844443 -22.045299 9.634637 -38.457823 -17.143308 -10.020212 138.645358 -41.397213 -116.711561 -3.342990 3.238139 0.364490 -0.376560 0.560540 0.149050 -9.197800 21.909617 17.846190 31.322712 -4.547948 -11.852969 171.145559 55.514543 133.702421 2.359480 -2.097468 0.433030 -0.231760 -0.444370 0.138930 
0.034310 17.011930 -5.015590 -1.890464 19.739813 -14.202641 -14.406664 12.098316 2.786854 3.568521 0.093409 3.724961 -10.338306 7.077243 12.295080 0.859545 4.317344 3.156565 0.505370 0.403590 0.536630 18.954944 -12.710508 2.476834 -7.536831 -0.013692 -10.976261 8.337957 -10.813951 34.926468 -1.053209 -5.956749 2.110037 -0.195800 -0.341750 0.374050 -6.290407 3.315792 -7.623993 33.452981 -14.724304 25.544252 -33.943541 -3.508949 24.329952 9.985155 0.581424 -17.965914 -3.446733 -6.650930 46.643370 9.520770 -9.059700 -21.618990 -11.094924 -20.768176 9.963990 -39.702474 -13.291199 -11.028078 139.903341 -46.029949 -124.450072 -3.320614 3.308459 0.356270 -0.403430 0.582810 0.145730 -9.219062 20.855686 17.985991 28.809289 -6.494866 -11.422796 179.434506 53.276021 148.953165 2.333928 -2.265479 0.466430 -0.275650 -0.467190 0.149790 
0.057240 16.995340 -5.020440 -1.405229 20.597082 -14.686601 -14.427532 12.095992 2.853606 3.243886 0.285630 4.830400 -10.644234 7.139354 11.673284 0.956483 4.342368 3.149574 0.495200 0.392670 0.540870 18.931977 -12.690377 2.438049 -8.507838 0.009167 -11.347944 8.421255 -11.223287 36.434134 -1.095418 -6.164528 2.037138 -0.234450 -0.385550 0.373870 -6.278941 3.267440 -7.677228 33.663877 -15.577882 26.123547 -34.721095 -4.214005 23.420616 10.362727 0.769224 -18.313851 -3.250968 -6.727914 47.790135 9.248130 -9.761570 -21.450400 -12.091097 -19.547788 10.349743 -40.911309 -9.440745 -11.955719 140.960750 -51.315304 -132.441739 -3.264597 3.401460 0.353400 -0.434450 0.609180 0.143780 -9.360591 19.884209 17.928719 26.560557 -8.500513 -11.555374 -174.248241 51.714814 162.207742 2.325069 -2.422515 0.498730 -0.314110 -0.491340 0.160490 
0.080530 16.976060 -5.022010 -0.896228 21.403793 -14.971368 -14.457619 12.118269 2.924059 2.885108 0.489262 5.747486 -10.926872 7.177341 11.045869 1.051678 4.348634 3.144359 0.500570 0.400650 0.552740 18.899232 -12.637430 2.409284 -9.481019 0.074634 -11.812892 8.568360 -11.621986 37.853104 -1.140460 -6.359141 1.965610 -0.263120 -0.435440 0.374530 -6.236296 3.118321 -7.729169 33.799084 -16.291533 26.476926 -35.320053 -4.817484 22.271472 10.770121 0.764053 -18.629151 -3.471209 -6.693447 49.178731 8.839170 -10.518320 -21.120480 -12.862876 -18.302653 10.739543 -42.154724 -5.660160 -12.782060 141.848791 -57.355738 -140.609707 -3.145108 3.546770 0.349060 -0.470050 0.641900 0.147090 -9.742904 19.041092 17.712587 24.633209 -10.415415 -12.062964 -169.267113 51.103083 173.651128 2.326192 -2.584570 0.538300 -0.352590 -0.523740 0.174730 
0.104220 16.955580 -5.021290 -0.412164 22.196433 -15.113416 -14.497594 12.168008 2.995845 2.550214 0.691330 6.486220 -11.200508 7.207481 10.460086 1.137944 4.353432 3.139314 0.514060 0.416090 0.568370 18.855195 -12.553799 2.392579 -10.433333 0.167227 -12.312021 8.801540 -12.024969 39.135846 -1.187502 -6.539481 1.898173 -0.285230 -0.483570 0.375120 -6.160502 2.868765 -7.780819 33.867103 -16.911622 26.675392 -35.724928 -5.343963 20.888753 11.220709 0.633849 -18.913090 -3.965331 -6.600577 50.764879 8.258760 -11.277470 -20.703650 -13.539655 -17.172167 11.080633 -43.387625 -2.068838 -13.752991 143.009840 -64.147271 -149.071304 -2.937068 3.747642 0.348180 -0.506860 0.676400 0.154150 -10.264262 18.412872 17.434692 22.960758 -12.275847 -12.811217 -164.864738 51.484228 -176.124913 2.332843 -2.745721 0.576890 -0.383420 -0.556480 0.188990 
0.128760 16.935680 -5.018930 0.014879 22.925845 -15.104308 -14.543422 12.237181 3.063210 2.258713 0.876770 7.013959 -11.484459 7.241798 9.960327 1.212097 4.356920 3.131844 0.531390 0.435580 0.584880 18.804809 -12.444840 2.390831 -11.345207 0.288320 -12.852052 9.162230 -12.441116 40.227302 -1.229918 -6.702044 1.837448 -0.300490 -0.529340 0.372070 -6.060392 2.543387 -7.829040 33.938105 -17.467729 26.674779 -36.020502 -5.794148 19.333024 11.722104 0.353429 -19.159123 -4.771007 -6.380258 52.506415 7.639940 -12.015430 -20.230090 -14.107697 -16.144302 11.271042 -44.648206 1.212888 -15.252726 145.094751 -71.779518 -157.515414 -2.644985 3.966899 0.348450 -0.543460 0.708290 0.160980 -10.941753 18.024231 17.175357 21.507336 -13.898932 -13.586005 -160.531820 52.821559 -166.797819 2.349795 -2.898746 0.611700 -0.407250 -0.586870 0.202240 
0.153730 16.915420 -5.014820 0.415299 23.621861 -14.906557 -14.591677 12.311879 3.122237 1.959857 1.046807 7.320677 -11.749649 7.264735 9.523099 1.271484 4.350383 3.126800 0.550270 0.458220 0.600780 18.753197 -12.320113 2.403394 -12.255627 0.434976 -13.486420 9.631822 -12.884638 41.180651 -1.269115 -6.857236 1.777661 -0.308870 -0.569900 0.366650 -5.949180 2.180884 -7.874317 33.980949 -17.922479 26.398756 -36.246675 -6.143197 17.708769 12.238084 0.054471 -19.349782 -5.570482 -6.143603 54.288346 6.947940 -12.654940 -19.685120 -14.555890 -15.210666 11.233796 -45.909690 4.060046 -17.428837 151.621362 -80.105395 -168.276273 -2.352031 4.105486 0.348740 -0.576920 0.736730 0.167400 -11.739497 17.791261 17.024490 20.378489 -15.049325 -14.181438 -155.775615 55.025074 -157.982208 2.384356 -3.032066 0.641490 -0.423870 -0.613870 0.214460 
